<?xml version="1.0" encoding="UTF-8" standalone="no"?>
<svg
   xmlns:dc="http://purl.org/dc/elements/1.1/"
   xmlns:cc="http://creativecommons.org/ns#"
   xmlns:rdf="http://www.w3.org/1999/02/22-rdf-syntax-ns#"
   xmlns:svg="http://www.w3.org/2000/svg"
   xmlns="http://www.w3.org/2000/svg"
   style="overflow:visible"
   xml:space="preserve"
   enable-background="new 0 0 300 91.506"
   overflow="visible"
   viewBox="0 0 300 379.15773"
   height="379.15771"
   width="300"
   id="Layer_1"
   version="1.1"><metadata
     id="metadata4328"><rdf:RDF><cc:Work
         rdf:about=""><dc:format>image/svg+xml</dc:format><dc:type
           rdf:resource="http://purl.org/dc/dcmitype/StillImage" /><dc:title></dc:title></cc:Work></rdf:RDF></metadata><defs
     id="defs4326" /><g
     transform="translate(0,287.65171)"
     id="g4318"><path
       style="fill:#ed1b2d"
       id="path4320"
       d="m 97.526,56.782 c 0,-19.18 15.554,-34.74 34.725,-34.74 19.181,0 34.733,15.56 34.733,34.74 0,19.194 -15.553,34.724 -34.733,34.724 -19.171,0 -34.725,-15.529 -34.725,-34.724 m 34.697,15.943 c 8.793,0 15.912,-7.127 15.912,-15.928 0,-8.793 -7.119,-15.928 -15.912,-15.928 -8.807,0 -15.913,7.135 -15.913,15.928 0,8.801 7.106,15.928 15.913,15.928 z" /><path
       style="fill:#006bb6"
       id="path4322"
       d="m 0,0 29.038,0 16.412,55.006 0.234,0 L 62.361,0 l 28.245,0 0,89.593 -18.675,0 0,-63.36 -0.248,0 -17.911,63.36 -17.16,0 -17.675,-63.36 -0.249,0 0,63.36 L 0,89.593 0,0 m 252.305,17.66 18.674,0 0,-17.66 -18.674,0 0,17.66 z m 0,71.933 18.674,0 0,-65.635 -18.674,0 0,65.635 z m 29.022,0 18.673,0 0,-89.593 -18.673,0 0,89.593 z m -106.511,0 18.666,0 0,-5.814 c 4.8,5.306 10.855,7.333 17.924,7.333 18.806,0 33.074,-15.766 33.074,-34.205 0,-18.409 -14.145,-34.446 -33.074,-34.446 -6.812,0 -12.734,2.136 -17.924,6.568 l 0,-29.029 -18.666,0 0,89.593 M 193.71,56.797 c 0,-8.793 7.111,-15.928 15.912,-15.928 8.801,0 15.921,7.135 15.921,15.928 0,8.801 -7.12,15.928 -15.921,15.928 -8.801,0 -15.912,-7.127 -15.912,-15.928 z" /></g><g
     transform="translate(-106.09247,175.86592)"
     id="layer1"><ellipse
       ry="137.30571"
       rx="136.16508"
       cy="-36.461212"
       cx="256.09247"
       id="path4207"
       style="opacity:1;fill:none;fill-opacity:1;stroke:#006bb6;stroke-width:4.19799995;stroke-miterlimit:4;stroke-dasharray:none;stroke-opacity:1" /><path
       id="path4203"
       d="m 176.56925,42.02875 c -0.0838,-0.13566 0.0134,-0.55937 0.21611,-0.94157 0.20269,-0.38221 1.11034,-2.1115 2.01697,-3.84286 2.05569,-3.92564 2.04101,-3.90819 3.13372,-3.72592 2.11732,0.35317 2.39338,0.36948 2.7303,0.16125 0.2616,-0.16168 0.28275,-0.48202 0.0803,-1.21536 -0.33435,-1.21092 0.0439,-2.46404 1.32989,-4.40548 1.00185,-1.51251 1.12228,-1.97899 0.44369,-1.71859 -0.25072,0.0962 -0.79803,0.25936 -1.21625,0.36257 -0.41822,0.10321 -1.24332,0.49061 -1.83356,0.8609 -0.59024,0.37029 -1.07316,0.60463 -1.07316,0.52075 0,-0.0839 -0.53517,0.12053 -1.18926,0.45422 -1.64428,0.83886 -5.67897,0.84926 -5.67897,0.0147 0,-0.23275 3.55701,-4.65339 5.19023,-6.45039 l 1.04069,-1.14505 1.015,0.77418 c 0.55825,0.4258 1.33824,0.77418 1.73331,0.77418 0.92525,0 1.62688,-0.98523 1.42401,-1.9996 -0.17915,-0.89575 0.55066,-1.55015 4.29793,-3.85387 2.65812,-1.63413 2.91841,-2.0874 4.03024,-7.01813 0.90859,-4.02945 1.6015,-5.54785 2.74852,-6.02296 1.2997,-0.53835 2.20476,-1.82316 2.88125,-4.09013 0.88521,-2.96643 0.91743,-2.98931 4.37208,-3.10347 2.77554,-0.0917 2.99037,-0.14354 3.96073,-0.95551 1.25242,-1.04798 1.64717,-2.03152 1.64717,-4.10394 0,-1.98925 0.45504,-7.19085 1.00538,-11.49267 0.91564,-7.15724 0.9498,-8.1488 0.30373,-8.81719 -0.29814,-0.30844 -0.71311,-0.25226 -2.33821,0.31659 -1.08666,0.38036 -2.58039,0.96764 -3.31939,1.30506 -0.739,0.33742 -1.42552,0.61349 -1.52561,0.61349 -0.10008,0 -1.10519,0.4724 -2.23357,1.04977 -5.87506,3.17895 -12.05486,5.70636 -18.50673,6.50952 -4.70207,0.54996 -6.33702,1.06712 -7.7081,2.4382 -1.18737,1.18738 -2.10489,3.42887 -1.88189,4.59749 0.3368,1.76507 0.51239,2.37799 0.88682,3.09567 0.73416,1.40719 0.58987,1.53431 -1.52764,1.34587 -2.76933,-0.24645 -3.26036,-0.32711 -4.2211,-0.69342 -4.33224,-1.65178 -5.58044,-3.48672 -5.58044,-8.20363 0,-3.27377 1.63373,-6.31393 4.91054,-9.13787 4.412,-3.80224 8.88795,-5.08182 18.98519,-5.42745 2.67575,-0.0916 5.89523,-0.22838 7.15441,-0.30397 1.25918,-0.0756 3.62384,-0.20336 5.25482,-0.28392 7.48954,-0.26741 12.74139,-1.75171 18.10118,-6.35463 0.8629,-0.75157 2.05368,-1.75283 2.64617,-2.22502 0.59249,-0.4722 1.23019,-0.99186 1.4171,-1.15481 0.74114,-0.64614 3.28566,-2.05942 4.77557,-2.65247 3.47557,-1.3834 6.03436,-1.90986 10.03405,-2.06445 1.773,-0.0685 1.97304,-0.008 3.5772,1.0762 2.14138,1.44773 2.87282,1.80898 5.70566,2.81792 2.17956,0.77627 2.5297,0.81581 7.2975,0.82415 2.75444,0.005 6.59135,-0.0493 8.52646,-0.12034 3.6104,-0.13246 4.31952,-0.36961 3.95394,-1.3223 -0.15441,-0.40237 -0.61201,-0.42992 -3.82386,-0.23021 -6.77127,0.42105 -11.97639,0.28065 -14.41045,-0.3887 -2.31859,-0.6376 -5.06628,-1.91341 -7.0475,-3.27232 -1.17703,-0.80733 -1.28618,-0.82636 -3.86338,-0.67355 -3.27966,0.19444 -6.73539,0.46569 -7.50795,0.5893 -6.63969,0.45426 -13.72158,0.89623 -19.61225,-0.0161 -4.92304,-0.76132 -7.64985,-1.73956 -9.35341,-3.35551 -0.50117,-0.47539 -1.08068,-0.79932 -1.2878,-0.71985 -0.20712,0.0795 -1.62548,0.0391 -3.15191,-0.0897 -3.22267,-0.27192 -6.19111,-1.45089 -8.18216,-3.24969 -1.13829,-1.02838 -1.2408,-1.06049 -3.54953,-1.11205 -3.86779,-0.0864 -7.04732,-1.62023 -8.87533,-4.2816 -0.35415,-0.51561 -0.86165,-0.76681 -1.84796,-0.91472 -1.90173,-0.28518 -3.56796,-1.13468 -4.93626,-2.51667 -0.64336,-0.64978 -1.16974,-1.27559 -1.16974,-1.39068 0,-0.52328 -0.98732,-1.10867 -1.86986,-1.10867 -0.53374,0 -1.67859,-0.26496 -2.54411,-0.58879 -1.57469,-0.58917 -2.85895,-1.82232 -3.60647,-3.46295 -0.18146,-0.39826 -0.86571,-0.98644 -1.52056,-1.30707 -1.49908,-0.73398 -3.79714,-2.75185 -4.34874,-3.81853 -0.41638,-0.80518 -0.41167,-0.814 0.5104,-0.95504 0.88839,-0.13588 4.79301,-0.46082 7.22654,-0.60138 2.96225,-0.1711 6.65146,-0.45733 7.2975,-0.56619 0.39349,-0.0663 1.81007,-0.20093 3.14794,-0.29917 1.33788,-0.0982 2.88323,-0.22401 3.43412,-0.27949 0.55089,-0.0555 2.67575,-0.24584 4.72191,-0.423 2.04616,-0.17716 5.71637,-0.50637 8.15602,-0.73158 2.43966,-0.22521 6.75377,-0.6094 9.58691,-0.85377 2.83315,-0.24437 5.73069,-0.50847 6.43897,-0.5869 0.70829,-0.0784 2.06047,-0.19813 3.00485,-0.26599 0.94439,-0.0679 2.48974,-0.1902 3.43412,-0.27187 0.94438,-0.0817 4.48582,-0.34324 7.86985,-0.58129 3.38404,-0.23804 6.86108,-0.49877 7.72676,-0.5794 3.73067,-0.34746 5.00903,-0.43807 10.15927,-0.72011 11.71309,-0.64143 13.89099,-0.6627 15.88279,-0.15513 5.5614,1.41724 8.97445,4.67518 11.0451,10.54315 0.20944,0.59355 0.56305,1.495 0.78578,2.00323 0.22274,0.50824 0.63248,1.56796 0.91053,2.35494 0.88464,2.50386 2.88057,6.58321 4.09859,8.37682 2.02976,2.98895 5.08028,4.95858 8.53439,5.51037 3.03879,0.48545 8.09303,0.48002 8.39527,-0.009 0.52698,-0.85267 -0.26253,-1.14325 -3.11229,-1.14549 -3.51449,-0.003 -5.92645,-0.39788 -7.9844,-1.308 -1.54427,-0.68296 -2.9268,-1.69382 -2.9268,-2.13999 0,-0.20877 3.44886,-0.5359 6.39193,-0.60629 1.55497,-0.0372 2.47953,-0.44412 2.47953,-1.09133 0,-0.42868 -0.65715,-0.49133 -3.72029,-0.3547 -1.65267,0.0737 -3.82845,0.15073 -4.83508,0.17113 l -1.83022,0.0371 -1.13751,-1.65878 c -0.62564,-0.91233 -1.08965,-1.70666 -1.03113,-1.76516 0.0585,-0.0585 1.87926,-0.22231 4.04612,-0.36399 3.8076,-0.24896 4.79024,-0.52167 4.36413,-1.21115 -0.1457,-0.23574 -1.37304,-0.2729 -4.3965,-0.1331 -2.3069,0.10666 -4.30917,0.21041 -4.44948,0.23055 -0.38567,0.0554 -1.2512,-1.54698 -1.46408,-2.71046 l -0.18847,-1.03004 2.24163,-0.19423 c 5.8442,-0.50637 5.81883,-0.50118 5.81883,-1.19125 0,-0.66437 -1.23216,-0.78275 -4.66164,-0.44788 -1.78119,0.17393 -3.43948,0.31623 -3.6851,0.31623 -0.41462,0 -2.16555,-3.31957 -1.89411,-3.59102 0.0623,-0.0623 1.75912,-0.22374 3.77077,-0.35883 3.66409,-0.24605 4.16449,-0.41818 4.17628,-1.43655 0.003,-0.28603 -0.36212,-0.33962 -1.49804,-0.21968 -0.82633,0.0872 -2.85461,0.19309 -4.50728,0.23522 l -3.00485,0.0766 -0.92203,-1.71705 c -0.50711,-0.94439 -0.92565,-1.79293 -0.93007,-1.88566 -0.004,-0.0927 1.50511,-0.19793 3.35453,-0.23377 3.71378,-0.072 5.26643,-0.30113 5.43334,-0.80186 0.23657,-0.7097 -0.98095,-0.87777 -4.93254,-0.6809 -2.20355,0.10978 -4.15,0.15322 -4.32542,0.0965 -0.85181,-0.27521 -1.41824,-4.06483 -0.61112,-4.08855 8.64084,-0.25394 9.62891,-0.41862 9.20109,-1.5335 -0.16362,-0.42638 -0.45262,-0.4781 -1.94221,-0.34757 -0.96249,0.0843 -3.10217,0.18377 -4.75484,0.22096 l -3.00485,0.0676 -0.0864,-1.81956 c -0.0599,-1.26179 0.0278,-1.892 0.28618,-2.05587 0.2049,-0.12997 1.3384,-0.23905 2.51888,-0.24241 3.94003,-0.0112 6.90693,-0.34288 7.07905,-0.79141 0.0873,-0.22755 -0.021,-0.53133 -0.24066,-0.67506 -0.37335,-0.24428 -6.39517,-0.103 -7.9831,0.18729 -1.6456,0.30084 -1.63633,-0.62249 0.0541,-5.39079 0.71521,-2.01746 0.98333,-2.48016 1.34932,-2.32855 3.02243,1.25204 6.40632,2.39061 7.32497,2.46464 0.97228,0.0784 1.15735,0.004 1.22865,-0.49435 0.07,-0.48896 -0.23631,-0.69966 -1.84013,-1.26585 -3.57666,-1.26267 -7.25837,-3.68925 -7.25837,-4.78394 0,-0.22396 0.3382,-0.37493 0.8399,-0.37493 0.46195,0 1.15234,-0.1188 1.53422,-0.26398 0.38187,-0.14519 1.51708,-0.34448 2.52267,-0.44286 1.0056,-0.0984 2.60103,-0.30057 3.54542,-0.4493 2.91534,-0.45914 4.75223,-0.34303 6.31123,0.39895 1.63893,0.78001 5.10483,1.32785 10.04968,1.58853 2.60011,0.13706 3.61568,0.30067 4.00647,0.64543 0.64513,0.56914 3.44668,1.20689 7.96408,1.81296 1.88876,0.25341 4.46435,0.64519 5.72353,0.87062 1.25917,0.22543 2.86891,0.47471 3.5772,0.55397 3.74506,0.41904 4.57882,0.71223 4.57882,1.61012 0,0.31942 0.26745,1.20248 0.59434,1.96234 0.32688,0.75987 0.55225,1.74959 0.50081,2.19938 -0.0927,0.81019 -0.11084,0.81749 -1.95368,0.78405 -1.02308,-0.0186 -2.72501,-0.0829 -3.78206,-0.14309 -1.6479,-0.0937 -2.0065,-0.025 -2.51519,0.48211 -0.7008,0.69865 -0.51473,1.48097 0.38329,1.61147 0.34084,0.0495 1.2636,-0.0765 2.05058,-0.27997 2.5449,-0.65811 4.16529,0.12624 3.74232,1.81147 -0.17167,0.68398 -1.05517,0.99582 -2.7407,0.96733 -0.39349,-0.007 -1.13282,0.074 -1.64294,0.17923 -0.58082,0.11981 -1.32959,0.0305 -2.00323,-0.23907 -1.17169,-0.46878 -4.2724,-0.2892 -6.51309,0.37721 -1.40557,0.41803 -4.05924,1.81424 -4.67422,2.31413 -1.33908,0.81813 -1.43746,1.33926 -1.6369,2.20566 0.0964,0.30381 0.42551,0.85742 0.73131,1.23026 1.96504,2.39587 3.57136,4.08978 5.66333,5.97215 6.04237,5.43697 7.92502,7.75257 10.62021,13.0625 1.59763,3.14759 3.17582,8.89908 3.17582,11.57385 0,1.31588 -0.0681,1.32873 -3.00485,0.56679 l -2.00323,-0.51975 -0.44598,-2.68324 c -0.6334,-3.81094 -1.5379,-6.58671 -3.11412,-9.55679 -1.9914,-3.75239 -4.1272,-6.77495 -6.73519,-9.53153 -2.07591,-2.19419 -5.86086,-5.48741 -6.30676,-5.48741 -0.0976,0 -0.59956,-0.32195 -1.11545,-0.71545 -0.5159,-0.39349 -1.1512,-0.71544 -1.41179,-0.71544 -0.65369,0 -0.63057,1.31149 0.027,1.53229 1.65688,0.55633 7.07678,5.3943 9.66088,8.62358 0.62825,0.78512 1.31359,1.62219 1.52296,1.86015 2.23939,2.54516 4.97034,8.3341 5.78791,12.26893 0.75316,3.62484 0.7366,4.04652 -0.15889,4.04652 -0.51997,0 -0.71544,0.15336 -0.71544,0.56132 0,0.58145 0.4342,0.75653 3.57721,1.44241 4.76874,1.04066 6.55268,1.9774 7.5613,3.97042 0.74518,1.47249 0.8464,2.19368 1.02729,7.31986 0.0886,2.5111 0.21617,4.6207 0.28347,4.688 -0.0715,1.39355 0.17598,1.84177 1.44034,2.10712 0.73118,-0.0744 8.9391,-2.56128 10.57849,-3.20517 0.5833,-0.22909 5.0253,-1.58495 6.58206,-2.00908 2.97777,-0.33614 4.9289,1.45137 6.55417,3.83806 0.84006,1.25795 0.97812,2.89148 0.34853,4.12383 -0.21714,0.42503 -0.48493,1.19131 -0.59509,1.70285 l -0.20029,0.93007 2.04018,0 c 2.14144,0 3.3937,0.42951 4.43362,1.52066 0.49614,0.52059 2.6594,6.03751 3.27509,8.35243 0.58973,2.21729 3.2937,8.17861 4.92748,10.86339 0.29113,0.47841 0.65748,1.1621 0.8141,1.5193 0.24635,0.56185 1.63586,2.64443 3.93303,5.8948 0.34841,0.49298 0.69537,1.34705 0.77101,1.89794 0.22468,1.63621 0.67617,2.86462 1.40444,3.82123 0.83284,1.09396 1.93198,3.21211 2.08889,4.02549 0.34284,1.77721 0.74499,5.35042 0.61661,5.4788 -0.28648,0.28649 -7.8061,-5.24869 -8.37006,-6.16119 -0.0876,-0.14176 0.16493,-0.83846 0.56119,-1.54824 0.78616,-1.40815 0.92171,-2.52017 0.36276,-2.9759 -0.19675,-0.16042 -0.91234,-0.45632 -1.59021,-0.65756 -0.70742,-0.21002 -1.45435,-0.67979 -1.75328,-1.10271 -0.651,-0.92102 -3.1999,-8.03579 -2.99667,-8.36462 -0.34566,-0.63025 -0.82462,-1.49739 -1.05198,-2.17161 -0.58597,-1.76083 -3.54973,-8.03355 -3.95601,-8.3728 -0.0943,-0.0787 -0.36309,-0.52942 -0.59742,-1.00162 -0.75998,-1.53143 -3.49281,-5.00688 -3.9719,-5.05124 -0.98181,-0.0909 -2.19938,0.10961 -2.58225,0.42524 -1.08167,1.89662 -2.09938,3.99026 -2.7232,5.9519 -0.13924,1.26847 -2.22309,7.20861 -2.91126,8.29875 -0.3758,0.5953 -0.95246,1.22642 -1.28146,1.4025 -0.32901,0.17608 -0.82463,0.53576 -1.10138,0.79929 -5.36768,5.11129 -5.49149,5.17742 -10.14626,5.41987 l -2.82292,0.14704 0.5126,-0.82682 c 2.06572,-3.33197 3.64106,-5.53197 3.863,-5.39479 0.14414,0.0891 0.19461,-0.0138 0.11216,-0.22868 -0.0824,-0.21486 0.108,-0.62404 0.42321,-0.9093 0.55456,-0.50187 0.61664,-0.49819 1.91828,0.11365 1.09217,0.51338 1.47527,0.57303 2.03689,0.31713 0.60819,-0.27711 0.66991,-0.44423 0.51114,-1.38399 -0.16537,-0.97879 -0.0812,-1.16518 0.99929,-2.21292 2.18193,-2.11579 3.64653,-4.49741 4.13533,-6.72454 0.0518,-0.23609 0.12168,-0.55804 0.15525,-0.71544 0.18555,-0.87009 -0.0253,-1.06943 -0.93683,-0.88578 -2.07162,0.41736 -9.02676,1.56894 -10.2308,1.69394 -0.70829,0.0735 -2.70437,0.34182 -4.43574,0.59621 -1.73137,0.25438 -4.17817,0.60072 -5.43735,0.76963 -1.25918,0.16892 -2.84871,0.42984 -3.5323,0.57982 -1.62873,0.35735 -2.04985,0.18298 -2.90306,-1.202 -1.27668,-2.07239 -4.844,-5.12902 -5.98595,-5.12902 -0.82292,0 -0.79172,1.02645 0.0442,1.4536 0.71205,0.36386 3.64875,3.13517 3.64875,3.44325 0,0.19893 -5.1704,2.82799 -5.80309,2.95078 -0.19234,0.0373 -1.44433,0.40191 -2.7822,0.81019 -6.95353,2.14691 -14.39525,2.55553 -21.60632,2.09316 -5.56598,-0.40457 -12.68799,-1.74035 -19.88926,-3.73035 -2.84309,-0.78566 -4.63789,-1.08694 -7.01132,-1.17693 -0.94438,-0.0358 -1.94242,-0.0775 -2.21787,-0.0926 -1.12871,-0.0621 -0.34856,-1.13253 1.56149,-2.14259 1.66013,-0.8779 1.71495,-1.31906 0.1639,-1.31906 -0.89886,0 -1.6171,0.23443 -2.52789,0.82511 -3.19008,2.41613 -5.83947,5.71497 -7.67618,8.45755 -2.79272,4.18654 -3.39717,5.03877 -4.83246,6.81341 -1.91038,2.36206 -3.73691,3.73601 -6.44589,4.84871 -3.53928,1.47898 -7.37318,2.88747 -10.64921,3.80268 -2.89874,0.80393 -4.83171,1.36401 -5.58044,1.61694 -0.39349,0.13293 -1.61689,0.44416 -2.71867,0.69162 -4.95846,1.1137 -6.51716,2.74844 -9.99917,10.48691 -0.40284,0.89528 -0.73245,1.70156 -0.73245,1.79172 0,0.0902 -0.24206,0.70983 -0.53792,1.37706 -0.29585,0.66722 -0.8946,2.24336 -1.33055,3.50254 -0.43595,1.25918 -0.88442,2.41819 -0.99659,2.57559 -0.11218,0.15739 -0.29603,0.67251 -0.40857,1.1447 -0.22315,0.93628 -0.73607,2.20806 -1.6312,4.0445 -0.41516,0.85173 -0.97079,1.39734 -1.98539,1.94955 -0.77489,0.42175 -1.40889,0.68221 -1.40889,0.57879 0,-0.10341 -0.44311,0.37148 -0.98469,1.05531 -1.556,1.96468 -2.10037,2.43461 -3.68367,3.1799 -1.54226,0.72597 -4.90012,1.27496 -5.16609,0.84462 z M 330.69723,-25.7205 c 1.84341,-0.0807 3.53794,-0.21815 3.76563,-0.30552 0.60829,-0.23342 1.10031,-1.63291 0.88112,-2.50624 -0.20753,-0.82686 -1.10046,-1.05019 -1.37179,-0.3431 -0.33729,0.87896 -2.53217,1.683 -4.76647,1.74608 -14.39182,0.40638 -16.88441,0.63452 -16.88441,1.54539 0,0.2814 10.62929,0.20238 18.37592,-0.13661 z M 213.44737,-51.17683 c 0.94438,-0.0834 5.38464,-0.34833 9.86724,-0.58876 4.48259,-0.24043 8.27869,-0.56565 8.43577,-0.72273 0.44585,-0.44585 -0.2453,-1.27704 -1.02683,-1.23488 -0.37287,0.0201 -2.41647,0.12316 -4.54133,0.22899 -2.12486,0.10583 -4.50728,0.24519 -5.29427,0.30969 -0.78698,0.0645 -3.1694,0.20775 -5.29426,0.31833 -2.12486,0.11057 -4.18533,0.2279 -4.57882,0.26073 -0.39349,0.0328 -1.57093,0.0763 -2.61652,0.0966 -1.46861,0.0285 -1.94171,0.1428 -2.07971,0.50244 -0.47087,1.22706 0.86604,1.38264 7.12873,0.82961 z m 33.33955,-0.88636 c 2.12486,-0.10465 4.27553,-0.20725 4.77928,-0.22799 1.21025,-0.0498 1.74333,-0.5644 1.228,-1.18534 -0.30144,-0.36321 -0.76366,-0.42718 -2.26297,-0.31321 -1.0363,0.0788 -3.78505,0.23304 -6.10834,0.3428 -3.83412,0.18114 -4.27674,0.152 -4.79345,-0.31562 -0.56757,-0.51364 -0.82099,-2.52656 -0.3544,-2.81493 0.11819,-0.073 1.82452,-0.21911 3.79184,-0.32458 3.68304,-0.19746 4.48151,-0.46762 4.12534,-1.39579 -0.19632,-0.51159 -1.35694,-0.51452 -9.95781,-0.0251 -3.12852,0.17803 -3.74958,-0.11576 -3.85021,-1.8213 -0.041,-0.69461 0.0782,-1.24522 0.29992,-1.38536 0.20237,-0.12793 1.96421,-0.29935 3.91519,-0.38093 2.98987,-0.12503 3.59692,-0.22831 3.86338,-0.6573 0.24428,-0.39326 0.21904,-0.56948 -0.11102,-0.77524 -0.40741,-0.25398 -4.84559,-0.17454 -9.93092,0.17776 -2.23744,0.15501 -2.37872,0.12888 -3.0764,-0.56879 -0.73659,-0.73659 -0.90967,-1.46431 -0.50115,-2.10721 0.13855,-0.21806 1.3675,-0.41475 3.28606,-0.52595 4.09956,-0.23759 4.48678,-0.28905 4.84104,-0.64331 0.16725,-0.16725 0.22507,-0.51001 0.12849,-0.76169 -0.15571,-0.40578 -0.68664,-0.43254 -4.68836,-0.23632 -7.29691,0.3578 -8.28164,0.31899 -8.78412,-0.34617 -0.2378,-0.3148 -0.43645,-1.04503 -0.44146,-1.62274 l -0.009,-1.05038 1.7886,-0.16794 c 0.98373,-0.0924 2.81884,-0.1992 4.07801,-0.23741 l 2.28941,-0.0695 0.0948,-0.83076 0.0948,-0.83076 -3.95816,0.19974 c -2.17699,0.10985 -5.01862,0.26615 -6.31475,0.34732 -2.23205,0.13979 -2.39462,0.10955 -3.07639,-0.57222 -0.86763,-0.86762 -0.90496,-1.78819 -0.1112,-2.74224 0.47463,-0.57046 0.88329,-0.71984 2.09609,-0.76614 4.68606,-0.17892 5.30459,-0.25268 5.45802,-0.65082 0.0866,-0.22469 -0.0233,-0.58931 -0.24431,-0.81026 -0.33059,-0.3306 -1.01765,-0.35535 -3.8802,-0.13978 -3.27456,0.24659 -3.52887,0.31024 -4.33826,1.08569 -1.60149,1.53431 -1.60006,3.91583 0.003,5.35251 0.84075,0.75339 1.20113,0.84842 3.43207,0.90499 0.97983,0.0248 0.98918,0.0374 1.0211,1.37649 0.0276,1.15694 0.1818,1.4967 1.0717,2.36096 1.09292,1.06142 1.30798,1.12735 3.32404,1.01896 1.22737,-0.066 1.2504,-0.0509 1.06282,0.69649 -0.27671,1.1025 0.81682,3.16616 1.91983,3.62304 0.4741,0.19638 1.47512,0.34207 2.22449,0.32377 1.3406,-0.0328 1.95815,0.41242 1.53097,1.10362 -0.31696,0.51284 0.20433,1.92841 1.02724,2.78951 0.72801,0.76179 2.19271,1.33146 3.00991,1.17064 0.15167,-0.0298 0.56552,-0.039 0.91966,-0.0204 0.53651,0.0282 0.6439,0.19823 0.6439,1.01915 0,2.34749 1.94263,3.98298 4.43574,3.73442 0.62958,-0.0628 2.88322,-0.19976 5.00808,-0.30441 z m -47.13217,-3.98362 c 0.44132,-0.0541 2.56618,-0.17854 4.72191,-0.27642 2.15574,-0.0979 4.37026,-0.2369 4.92115,-0.30891 0.55089,-0.072 3.12648,-0.20092 5.72353,-0.28648 2.59705,-0.0856 5.04386,-0.20459 5.43735,-0.26451 0.39349,-0.0599 1.89785,-0.19641 3.34302,-0.30332 2.64682,-0.1958 3.14614,-0.44473 2.78416,-1.38805 -0.15704,-0.40924 -1.29182,-0.422 -6.27027,-0.0705 -1.25918,0.0889 -3.77037,0.23155 -5.58044,0.31698 -7.71688,0.36422 -9.41115,0.459 -9.91394,0.55464 -0.29232,0.0556 -2.01246,0.18504 -3.82253,0.28765 -2.98248,0.16906 -7.03684,0.43067 -7.93725,0.51214 -0.43847,0.0397 -0.7558,0.9616 -0.48294,1.40309 0.18269,0.2956 4.00645,0.20033 7.07625,-0.17631 z m -9.96003,-5.16879 c 0.94439,-0.0645 3.3912,-0.24527 5.43736,-0.4018 2.04616,-0.15653 5.00808,-0.34762 6.58205,-0.42464 1.57397,-0.077 4.40712,-0.21593 6.29588,-0.30869 8.25391,-0.40535 12.60089,-0.74752 12.86612,-1.01275 0.31445,-0.31444 -0.18087,-1.30764 -0.60941,-1.22198 -0.13488,0.027 -1.91758,0.1276 -3.96156,0.22363 -2.04398,0.096 -4.42461,0.23427 -5.29029,0.30719 -0.86569,0.0729 -3.52233,0.19419 -5.90367,0.2695 -2.38133,0.0753 -5.02131,0.20169 -5.86661,0.28084 -0.84531,0.0791 -2.82472,0.21316 -4.39869,0.29782 -1.57397,0.0846 -3.57005,0.21237 -4.43573,0.28381 -2.82781,0.23339 -7.57084,0.50898 -8.15603,0.4739 -1.2672,-0.076 -2.42845,1.08743 -1.50243,1.50518 0.32834,0.14812 4.76404,0.0132 8.94301,-0.27201 z m -8.58529,-4.68962 c 2.51836,-0.15623 5.93101,-0.35737 7.58368,-0.44697 1.65267,-0.0896 3.77753,-0.22047 4.72191,-0.29082 4.79556,-0.35722 6.53259,-0.46393 9.29365,-0.57096 4.34623,-0.16848 9.37067,-0.47844 11.02487,-0.68015 1.28897,-0.15717 1.43089,-0.24543 1.43089,-0.88991 0,-0.67986 -0.0783,-0.71403 -1.57397,-0.68703 -0.86569,0.0156 -2.79738,0.11331 -4.29265,0.21706 -1.49527,0.10374 -5.29427,0.31705 -8.44221,0.474 -3.14794,0.15696 -8.29911,0.47754 -11.44705,0.7124 -3.14794,0.23486 -6.68937,0.48716 -7.86985,0.56067 -7.11354,0.44293 -7.44566,0.48706 -7.73512,1.02792 -0.37437,0.69951 0.32906,1.09637 1.70135,0.95987 0.56412,-0.0561 3.08615,-0.22985 5.6045,-0.38608 z m -6.86823,-4.74482 c 1.25918,-0.0652 3.31965,-0.211 4.57882,-0.32396 1.25918,-0.11296 2.38401,-0.18221 2.49964,-0.15388 0.11563,0.0283 2.56244,-0.13278 5.43735,-0.358 2.87492,-0.22523 6.77248,-0.48802 8.66124,-0.58399 1.88877,-0.096 4.2068,-0.22586 5.15118,-0.28865 0.94438,-0.0628 3.3268,-0.19201 5.29426,-0.28714 4.23997,-0.20503 4.75058,-0.29241 4.96437,-0.84953 0.1668,-0.43468 -0.56581,-1.39373 -0.90942,-1.19053 -0.42962,0.25406 -4.84716,0.55982 -12.92642,0.89468 -2.28225,0.0946 -4.53589,0.22776 -5.00808,0.29591 -0.4722,0.0682 -2.27511,0.1918 -4.00647,0.27475 -1.73137,0.083 -4.75769,0.27572 -6.72515,0.42838 -1.96746,0.15265 -4.80061,0.33801 -6.29588,0.41192 -7.26308,0.35897 -9.03024,0.52688 -9.41924,0.89497 -0.34378,0.32532 -0.3455,0.45424 -0.0114,0.85681 0.33998,0.40964 0.80209,0.44832 3.40954,0.28535 1.65894,-0.10368 4.04649,-0.24187 5.30566,-0.30709 z m 110.92832,-28.1686 c 0.85616,-1.15802 1.24835,-1.24553 2.56699,-0.57281 1.99327,1.01689 2.41791,-0.24952 0.49525,-1.47697 -0.95343,-0.60869 -1.35216,-0.70739 -2.13992,-0.52972 -1.17304,0.26456 -3.31186,2.34897 -3.06646,2.98845 0.28243,0.73601 1.46429,0.5106 2.14414,-0.40895 z m -84.17083,17.27102 c -1.98462,-1.35455 -3.18858,-3.10776 -3.62186,-5.27419 -0.14975,-0.74873 -0.47128,-1.00466 -2.3538,-1.87356 -3.28043,-1.51412 -5.44633,-3.95207 -5.46511,-6.15153 -0.005,-0.58263 -0.27192,-0.86893 -1.27934,-1.37205 -2.07182,-1.03472 -3.61426,-3.29724 -4.0337,-5.91679 -0.14668,-0.91602 -0.41127,-1.28923 -1.38399,-1.95208 -1.86455,-1.27059 -3.24961,-3.33904 -3.48216,-5.20025 -0.10746,-0.86014 -0.30621,-1.56389 -0.44165,-1.56389 -0.74753,0 -2.80951,-3.009 -3.24153,-4.73028 -0.18494,-0.73688 -0.15422,-0.7653 0.6063,-0.5609 0.44061,0.11843 1.25184,0.31859 1.80273,0.44481 1.15363,0.26432 1.51263,0.36075 7.2975,1.9601 2.36095,0.65274 4.48581,1.26511 4.72191,1.36083 0.23609,0.0957 0.62243,0.20532 0.85853,0.24357 0.23609,0.0383 1.33072,0.34702 2.4325,0.68615 1.10178,0.33913 2.90469,0.87762 4.00647,1.19663 1.10178,0.31901 2.96908,0.88602 4.14955,1.26002 1.94761,0.61704 5.31397,1.55954 7.61386,2.13169 0.48879,0.1216 1.45463,0.42241 2.14632,0.66847 0.69169,0.24605 2.93175,0.92243 4.97791,1.50305 2.04616,0.58063 5.52321,1.6135 7.72676,2.29527 2.20356,0.68177 4.77915,1.45003 5.72353,1.70725 0.94438,0.25721 2.23218,0.64397 2.86177,0.85947 0.62958,0.2155 2.30372,0.73373 3.72029,1.15163 6.11549,2.52708 14.38405,3.40178 19.36148,8.33996 1.17442,1.22202 1.87438,3.023 2.12082,5.45682 0.0914,0.90281 0.20987,1.99562 0.26323,2.42846 0.11925,0.96724 -0.0417,0.97423 -1.61243,0.0701 -1.81788,-1.04634 -4.94546,-1.90935 -7.09517,-1.95782 -2.00161,-0.0451 -11.20804,0.37306 -11.45801,0.52046 -0.082,0.0483 -1.88756,0.16931 -4.01242,0.26884 -2.12486,0.0995 -6.2458,0.37194 -9.15765,0.60534 -2.91184,0.23341 -8.7713,0.68461 -13.02102,1.00267 -4.24972,0.31807 -8.24188,0.64619 -8.87147,0.72917 -0.80662,0.10631 -1.35601,0.007 -1.86015,-0.33744 z m 20.50261,-4.26755 c 0.26493,-0.69039 -0.38593,-1.20772 -1.98686,-1.57923 -0.81854,-0.18994 -1.87459,-0.50323 -2.34678,-0.69619 -0.47219,-0.19296 -1.6312,-0.57947 -2.57559,-0.85891 -0.94438,-0.27944 -2.61851,-0.7996 -3.72029,-1.15592 -1.98668,-0.64249 -2.81545,-0.89376 -9.44056,-2.86219 -3.2146,-0.9551 -3.45379,-0.988 -3.79464,-0.52186 -0.52202,0.7139 -0.0587,1.04602 2.50358,1.79479 6.19983,1.81174 12.06857,3.62713 15.88279,4.91305 0.94439,0.31839 2.1458,0.68785 2.66981,0.82102 0.52401,0.13316 1.0284,0.31777 1.12086,0.41023 0.34071,0.34071 1.52674,0.15463 1.68768,-0.26479 z m 15.28892,-1.03437 c 0.4218,-0.78813 0.28002,-0.87289 -3.31051,-1.9791 -1.57397,-0.48493 -3.57005,-1.12487 -4.43573,-1.42209 -0.86568,-0.29722 -2.08909,-0.66731 -2.71868,-0.82243 -2.19805,-0.54155 -11.69793,-3.31661 -13.73646,-4.01263 -0.47219,-0.16122 -2.98339,-0.94807 -5.58044,-1.74856 -2.59705,-0.80048 -4.97947,-1.57531 -5.29427,-1.72184 -0.31479,-0.14654 -1.17564,-0.3961 -1.913,-0.5546 -0.73735,-0.15849 -2.02515,-0.53222 -2.86176,-0.83051 -5.35023,-1.90761 -6.55334,-2.03685 -6.11536,-0.65691 0.18444,0.58112 0.34262,0.64237 6.16821,2.38865 1.02308,0.30668 3.66306,1.12179 5.86662,1.81135 2.20356,0.68957 5.16548,1.58941 6.58206,1.99964 1.41657,0.41023 2.76875,0.82479 3.00485,0.92125 0.55494,0.22671 3.12722,0.97678 6.72515,1.96102 2.66284,1.23289 5.87877,1.66351 8.11606,2.39509 0.88766,0.29209 3.03051,0.9536 4.76187,1.47004 1.73137,0.51644 3.27028,1.04505 3.41981,1.17468 0.46737,0.40519 0.98297,0.25964 1.32158,-0.37305 z m 13.42779,-1.24776 c 0.63627,-0.76665 0.10068,-1.17165 -2.61431,-1.97684 -1.47231,-0.43664 -3.77155,-1.11705 -5.10943,-1.51201 -2.88845,-0.85272 -7.65667,-2.29833 -12.59176,-3.81753 -1.96746,-0.60565 -4.28549,-1.29217 -5.15118,-1.52561 -0.86568,-0.23343 -2.84433,-0.87711 -4.39699,-1.43041 -9.04486,-2.68034 -18.1702,-5.71562 -25.65153,-7.90052 -1.02308,-0.29806 -2.96057,-0.86956 -4.30552,-1.26999 -3.37995,-1.00632 -4.1592,-1.08788 -4.51091,-0.31131 -0.0833,0.41793 0.10433,0.64946 0.57218,0.79794 0.72803,0.27288 1.48605,0.45372 2.09146,0.63384 0.78698,0.24829 2.5899,0.75719 4.00647,1.13088 1.41657,0.3737 4.44289,1.27807 6.72514,2.00972 2.28226,0.73166 4.79346,1.50368 5.58044,1.71562 0.78699,0.21194 1.81722,0.52456 2.28941,0.69472 2.38533,0.85958 10.00991,3.2818 15.45353,4.90937 0.47219,0.14117 2.72583,0.83315 5.00809,1.53774 2.28226,0.70457 5.27638,1.60786 6.6536,2.0073 1.37722,0.39943 3.63086,1.06388 5.00809,1.47655 1.37722,0.41267 3.92061,1.17135 5.65198,1.68596 1.73137,0.51462 3.46989,1.07027 3.86338,1.23479 0.96374,0.40295 1.02161,0.39929 1.42786,-0.0902 z"
       style="fill:#ed1b2d;fill-opacity:1;stroke:none" /></g></svg>